<?xml version="1.0" encoding="UTF-8"?>
<svg version="1.1" xmlns="http://www.w3.org/2000/svg" width="500" height="500">
<path d="M0 0 C165 0 330 0 500 0 C500 165 500 330 500 500 C335 500 170 500 0 500 C0 335 0 170 0 0 Z " fill="#FEFEFE" transform="translate(0,0)"/>
<path d="M0 0 C14.52 0 29.04 0 44 0 C44 2.64 44 5.28 44 8 C32.78 8 21.56 8 10 8 C10 13.94 10 19.88 10 26 C18.58 26 27.16 26 36 26 C36 28.97 36 31.94 36 35 C27.42 35 18.84 35 10 35 C10 40.94 10 46.88 10 53 C21.55 53 33.1 53 45 53 C45.495 56.465 45.495 56.465 46 60 C49.20027244 55.84067155 52.39149414 51.67482238 55.56640625 47.49609375 C57.58665927 44.83827674 59.62615503 42.2019527 61.71484375 39.59765625 C62.81505859 38.18806641 62.81505859 38.18806641 63.9375 36.75 C64.58589844 35.94046875 65.23429687 35.1309375 65.90234375 34.296875 C67.24892201 32.06719908 67.24892201 32.06719908 66.55078125 29.72265625 C64.35372902 25.86536303 61.84512058 22.28585623 59.25 18.6875 C58.73695313 17.96626953 58.22390625 17.24503906 57.6953125 16.50195312 C54.58313832 12.14256341 51.38951754 7.86165679 48.09277344 3.63989258 C47 2 47 2 47 0 C51.01803753 -1.13897127 54.00020313 -1.28651266 58 0 C62.94486378 4.45879859 66.43457199 10.43319112 70 16 C70.77993228 17.17622052 71.56218091 18.35091135 72.34765625 19.5234375 C73.16556641 20.74933594 73.16556641 20.74933594 74 22 C77.62491416 20.79169528 78.30829813 19.6024574 80.5390625 16.5625 C81.20164062 15.66789062 81.86421875 14.77328125 82.546875 13.8515625 C83.23265625 12.91054688 83.9184375 11.96953125 84.625 11 C85.99173906 9.14550276 87.35890356 7.29131895 88.7265625 5.4375 C89.33064941 4.61121094 89.93473633 3.78492188 90.55712891 2.93359375 C92 1 92 1 93 0 C94.85287502 -0.07226502 96.70833878 -0.0838122 98.5625 -0.0625 C99.57441406 -0.05347656 100.58632813 -0.04445312 101.62890625 -0.03515625 C102.41136719 -0.02355469 103.19382812 -0.01195312 104 0 C100.88555421 4.84714596 97.64536708 9.53635694 94.09765625 14.078125 C93.43572266 14.92890625 92.77378906 15.7796875 92.09179688 16.65625 C90.7209473 18.40840423 89.34045831 20.15305307 87.95117188 21.890625 C87.29826172 22.73625 86.64535156 23.581875 85.97265625 24.453125 C85.37718994 25.20754883 84.78172363 25.96197266 84.16821289 26.73925781 C82.78188862 28.95141807 82.78188862 28.95141807 83.14575195 31.52734375 C84.03864361 34.11185552 85.0749625 35.91338129 86.6953125 38.109375 C87.24356689 38.86033447 87.79182129 39.61129395 88.35668945 40.38500977 C88.94023193 41.16545654 89.52377441 41.94590332 90.125 42.75 C90.7130542 43.55042725 91.3011084 44.35085449 91.90698242 45.17553711 C95.49377362 50.03961214 99.13552225 54.858409 102.92578125 59.56640625 C104 61 104 61 104 62 C99.66132058 63.10774794 96.31515884 63.29503634 92 62 C87.58669738 58.13787501 84.48143204 52.98184718 81.34423828 48.07763672 C79.33561984 44.9731429 77.16823119 41.9945988 75 39 C72.01835591 41.50368733 70.34473858 44.10093613 68.57958984 47.50512695 C64.98048838 53.98892872 61.29356307 60.58243916 53.91662598 63.01800537 C45.15891408 64.39409147 36.43611608 63.72258701 27.625 63.1875 C18.50875 62.795625 9.3925 62.40375 0 62 C0 41.54 0 21.08 0 0 Z " fill="#09BDED" transform="translate(330,247)"/>
<path d="M0 0 C25 0 25 0 34 5 C38.51076845 10.52569135 39.41346614 15.41614804 39.3515625 22.390625 C38.78252443 26.61415203 36.88872297 29.89842376 34 33 C31.828125 34.21875 31.828125 34.21875 30 35 C34.37327446 42.7810208 38.81574921 50.44519301 43.75 57.890625 C45 60 45 60 45 62 C41.17915229 62.60586442 37.8007758 62.81199865 34 62 C30.93818866 59.20423817 29.28039713 55.86573106 27.4375 52.1875 C26.67856445 50.7943457 26.67856445 50.7943457 25.90429688 49.37304688 C24.96818889 47.65125463 24.04938484 45.91985733 23.15405273 44.17651367 C21.94624997 41.81072139 21.94624997 41.81072139 20 39 C16.37 38.67 12.74 38.34 9 38 C9 45.92 9 53.84 9 62 C6.03 62 3.06 62 0 62 C0 41.54 0 21.08 0 0 Z " fill="#35F38C" transform="translate(123,247)"/>
<path d="M0 0 C9 0 9 0 11.79296875 2.4296875 C12.62003896 3.5574952 13.41676726 4.70796684 14.1875 5.875 C15.11081291 7.1570907 16.03535592 8.43829616 16.9609375 9.71875 C17.44530273 10.40839844 17.92966797 11.09804688 18.42871094 11.80859375 C21.26295137 15.76138152 24.30465592 19.55378392 27.3125 23.375 C28.4561096 24.83983383 29.59808913 26.30594201 30.73828125 27.7734375 C31.22337158 28.39653809 31.70846191 29.01963867 32.20825195 29.66162109 C34.83286272 33.08695451 37.41084248 36.54778998 40 40 C40.33 26.8 40.66 13.6 41 0 C44.3 0 47.6 0 51 0 C51 20.46 51 40.92 51 62 C42 62 42 62 39.390625 59.97265625 C38.33101563 58.53212891 38.33101563 58.53212891 37.25 57.0625 C36.84789307 56.53398437 36.44578613 56.00546875 36.03149414 55.4609375 C35.14663627 54.29293179 34.274184 53.11545202 33.41259766 51.93017578 C31.90654642 49.87230487 30.35605034 47.85469915 28.79296875 45.83984375 C22.4354795 37.62977403 16.230458 29.30727734 10 21 C9.67 34.53 9.34 48.06 9 62 C6.03 62 3.06 62 0 62 C0 41.54 0 21.08 0 0 Z " fill="#0CDEED" transform="translate(266,247)"/>
<path d="M0 0 C29.46666667 0 29.46666667 0 36.05859375 5.81640625 C36.74115234 6.68072266 36.74115234 6.68072266 37.4375 7.5625 C37.91058594 8.14128906 38.38367188 8.72007812 38.87109375 9.31640625 C42.28409816 14.40638861 41.61410963 21.16250849 41 27 C39.05534122 32.14810084 35.6797042 36.10304026 31 39 C24.24152848 41.87594533 17.24566926 41.13801275 10 41 C10 47.93 10 54.86 10 62 C6.7 62 3.4 62 0 62 C0 41.54 0 21.08 0 0 Z " fill="#4BEF61" transform="translate(75,247)"/>
<path d="M0 0 C6.20033541 4.91150164 9.30537939 11.12316941 11.7734375 18.52734375 C12.58702608 29.68289481 11.22077766 39.25362243 4.63671875 48.484375 C-1.39490251 55.09766204 -9.38381232 58.01439998 -18.07421875 58.77734375 C-28.68323265 59.20653268 -36.41003515 55.59774804 -44.2265625 48.52734375 C-50.6647199 40.87115658 -51.82335634 31.64688217 -51.5703125 21.92578125 C-50.67728537 13.09699034 -46.72053619 6.47098068 -40.2265625 0.52734375 C-28.97777027 -8.38679349 -11.532659 -7.62774113 0 0 Z M-37.5390625 10.90234375 C-41.92509768 17.72506514 -43.38673856 23.41726688 -42.2265625 31.52734375 C-39.95946359 38.73797778 -35.68875003 44.52519352 -29.2265625 48.52734375 C-22.66538354 50.29421242 -15.54018495 50.43149849 -9.21484375 47.76953125 C-4.19019408 44.63035915 -0.4416711 39.85630191 2.2734375 34.65234375 C3.56882882 26.55614802 3.47242275 20.05759442 -0.59375 12.76171875 C-3.86020113 8.29183825 -7.99422557 5.27145606 -13.2265625 3.52734375 C-23.67441296 2.59805591 -30.17850233 3.34284953 -37.5390625 10.90234375 Z " fill="#19F7D7" transform="translate(243.2265625,251.47265625)"/>
<path d="M0 0 C4.01803753 -1.13897127 7.00020313 -1.28651266 11 0 C15.94486378 4.45879859 19.43457199 10.43319112 23 16 C23.77993228 17.17622052 24.56218091 18.35091135 25.34765625 19.5234375 C26.16556641 20.74933594 26.16556641 20.74933594 27 22 C30.62491416 20.79169528 31.30829813 19.6024574 33.5390625 16.5625 C34.20164062 15.66789062 34.86421875 14.77328125 35.546875 13.8515625 C36.23265625 12.91054688 36.9184375 11.96953125 37.625 11 C38.99173906 9.14550276 40.35890356 7.29131895 41.7265625 5.4375 C42.33064941 4.61121094 42.93473633 3.78492188 43.55712891 2.93359375 C45 1 45 1 46 0 C47.85287502 -0.07226502 49.70833878 -0.0838122 51.5625 -0.0625 C52.57441406 -0.05347656 53.58632813 -0.04445312 54.62890625 -0.03515625 C55.41136719 -0.02355469 56.19382812 -0.01195312 57 0 C53.88555421 4.84714596 50.64536708 9.53635694 47.09765625 14.078125 C46.43572266 14.92890625 45.77378906 15.7796875 45.09179688 16.65625 C43.7209473 18.40840423 42.34045831 20.15305307 40.95117188 21.890625 C40.29826172 22.73625 39.64535156 23.581875 38.97265625 24.453125 C38.37718994 25.20754883 37.78172363 25.96197266 37.16821289 26.73925781 C35.78188862 28.95141807 35.78188862 28.95141807 36.14575195 31.52734375 C37.03864361 34.11185552 38.0749625 35.91338129 39.6953125 38.109375 C40.24356689 38.86033447 40.79182129 39.61129395 41.35668945 40.38500977 C41.94023193 41.16545654 42.52377441 41.94590332 43.125 42.75 C43.7130542 43.55042725 44.3011084 44.35085449 44.90698242 45.17553711 C48.49377362 50.03961214 52.13552225 54.858409 55.92578125 59.56640625 C57 61 57 61 57 62 C52.66132058 63.10774794 49.31515884 63.29503634 45 62 C40.58669738 58.13787501 37.48143204 52.98184718 34.34423828 48.07763672 C32.33561984 44.9731429 30.16823119 41.9945988 28 39 C25.19792523 41.65869873 23.01197604 44.29634051 20.93359375 47.546875 C20.36447266 48.39121094 19.79535156 49.23554688 19.20898438 50.10546875 C18.02910985 51.86682499 16.87516623 53.64583345 15.74804688 55.44140625 C11.42320821 61.71893127 11.42320821 61.71893127 7.08251953 62.57617188 C4.32567167 62.5779388 1.72356909 62.41295322 -1 62 C0.68293822 57.46827314 3.08876169 54.09178335 6.125 50.375 C7.11167273 49.13490611 8.09733896 47.89401079 9.08203125 46.65234375 C10.49232876 44.88355112 11.90501027 43.11717609 13.32958984 41.35986328 C14.50745161 39.8992038 15.66077893 38.41885851 16.8125 36.9375 C17.47894531 36.10089844 18.14539063 35.26429688 18.83203125 34.40234375 C20.25418225 32.08771961 20.25418225 32.08771961 19.55859375 29.7109375 C17.34786022 25.86570173 14.84312992 22.28309599 12.25 18.6875 C11.73695313 17.96626953 11.22390625 17.24503906 10.6953125 16.50195312 C7.58313832 12.14256341 4.38951754 7.86165679 1.09277344 3.63989258 C0 2 0 2 0 0 Z " fill="#089BED" transform="translate(377,247)"/>
<path d="M0 0 C4.06950422 1.37814582 6.42569356 3.98222191 9.41333008 6.99511719 C10.0277446 7.60333313 10.64215912 8.21154907 11.27519226 8.8381958 C12.56851097 10.12442324 13.85672952 11.41579668 15.14013672 12.71191406 C17.10754103 14.69319905 19.09776429 16.64930249 21.09106445 18.60449219 C22.34577204 19.85824872 23.5990766 21.11341125 24.85083008 22.37011719 C25.44761063 22.95363953 26.04439117 23.53716187 26.65925598 24.1383667 C28.91687793 26.44795928 30.62011271 28.32488342 31.52563477 31.46191406 C30.41698435 35.26086959 27.88478095 37.59644227 25.13989258 40.30761719 C24.55720108 40.89746399 23.97450958 41.48731079 23.37416077 42.09503174 C22.13866101 43.33830945 20.8967306 44.57522496 19.64892578 45.80615234 C17.74923247 47.68667644 15.8806132 49.59457059 14.01293945 51.50683594 C12.80702892 52.71303696 11.59939991 53.91752286 10.38989258 55.12011719 C9.83542953 55.68986267 9.28096649 56.25960815 8.70970154 56.84661865 C4.96411289 60.4834163 2.24079875 61.93005261 -3.19995117 61.94824219 C-3.85995117 61.28824219 -4.51995117 60.62824219 -5.19995117 59.94824219 C-5.15356227 55.60314861 -4.69967603 53.52535442 -1.82885742 50.20996094 C-0.8208344 49.33535273 0.20218715 48.47780878 1.23754883 47.63574219 C2.32666813 46.69781634 3.41387215 45.75766242 4.49926758 44.81542969 C5.0488916 44.34459961 5.59851563 43.87376953 6.16479492 43.38867188 C10.24736065 39.7925032 13.99320043 35.83089067 17.80004883 31.94824219 C14.53373953 27.99319035 11.18959603 24.28240745 7.49536133 20.72167969 C6.74770508 19.99980469 6.00004883 19.27792969 5.22973633 18.53417969 C3.67715118 17.04475055 2.11706825 15.56310256 0.55004883 14.08886719 C-0.18987305 13.36957031 -0.92979492 12.65027344 -1.69213867 11.90917969 C-2.36615723 11.26770996 -3.04017578 10.62624023 -3.73461914 9.96533203 C-5.57456557 7.43257005 -5.57967989 6.01450419 -5.19995117 2.94824219 C-3.64128639 0.48719254 -2.93485172 -0.06904767 0 0 Z " fill="#585858" transform="translate(283.199951171875,166.0517578125)"/>
<path d="M0 0 C0.66 0.66 1.32 1.32 2 2 C1.86943928 6.83074654 -0.73897296 8.86179149 -4 12 C-5.40473916 13.39994424 -6.80686023 14.80251813 -8.20703125 16.20703125 C-12.47135417 20.47135417 -16.73567708 24.73567708 -21 29 C-19.44917485 32.77325896 -17.12109555 35.02695318 -14.17578125 37.80859375 C-12.75749023 39.17661133 -12.75749023 39.17661133 -11.31054688 40.57226562 C-9.8088985 42.01184816 -8.30319361 43.44624047 -6.78686523 44.87036133 C-5.32003255 46.25262844 -3.87257812 47.65536914 -2.42578125 49.05859375 C-1.11734253 50.30080688 -1.11734253 50.30080688 0.2175293 51.56811523 C2 54 2 54 1.90161133 56.68383789 C1 59 1 59 -1 61 C-3.21166992 61.49462891 -3.21166992 61.49462891 -6 61 C-8.41048814 59.09869067 -10.46985696 57.25487897 -12.61328125 55.0859375 C-13.22769577 54.47867828 -13.84211029 53.87141907 -14.47514343 53.24575806 C-15.76969592 51.95898354 -17.05788484 50.66577971 -18.34008789 49.36669922 C-20.30397821 47.38360512 -22.29537835 45.43155066 -24.29101562 43.48046875 C-25.54604468 42.22573009 -26.79935968 40.96927414 -28.05078125 39.7109375 C-28.94595207 38.83869034 -28.94595207 38.83869034 -29.85920715 37.94882202 C-32.44031884 35.29334907 -33.84540185 33.63299668 -34.73657227 29.98413086 C-33.69701665 25.77250066 -31.21069434 23.44449163 -28.1640625 20.54296875 C-27.2722377 19.66032097 -27.2722377 19.66032097 -26.36239624 18.75984192 C-24.46355427 16.88789868 -22.54461459 15.03811041 -20.625 13.1875 C-19.33983275 11.92386011 -18.05596248 10.65889969 -16.7734375 9.39257812 C-5.63221853 -1.5488601 -5.63221853 -1.5488601 0 0 Z " fill="#585858" transform="translate(221,167)"/>
<path d="M0 0 C1.30841635 0.56698042 2.59956434 1.17478217 3.875 1.8125 C4.20704571 9.46574865 2.95678524 16.29109636 1.3125 23.75 C0.90450068 25.64736369 0.49653918 27.54473594 0.09007263 29.44242859 C-0.19645342 30.7790199 -0.48410099 32.11537123 -0.77281189 33.45149231 C-1.89576449 38.66815225 -2.9459966 43.89720199 -3.9765625 49.1328125 C-4.43786622 51.45480123 -4.89997284 53.7766289 -5.36227417 56.09841919 C-5.6611512 57.60970012 -5.95669335 59.1216446 -6.24880981 60.63424683 C-6.66014566 62.7595065 -7.08454152 64.88178254 -7.51171875 67.00390625 C-7.75108154 68.22279541 -7.99044434 69.44168457 -8.23706055 70.69750977 C-9.11411765 73.77432351 -9.8809522 75.55260781 -12.125 77.8125 C-15.1875 78.25 -15.1875 78.25 -18.125 77.8125 C-21.24779392 73.12830912 -19.41466911 68.42403188 -18.46411133 63.13574219 C-18.2142749 61.88954102 -17.96443848 60.64333984 -17.70703125 59.359375 C-17.56934326 58.66898636 -17.43165527 57.97859772 -17.28979492 57.26728821 C-16.84265045 55.03161267 -16.3907427 52.79694679 -15.9375 50.5625 C-15.78260101 49.79759247 -15.62770203 49.03268494 -15.46810913 48.24459839 C-14.82926725 45.09272954 -14.18924265 41.94111215 -13.54536438 38.79026794 C-12.63658688 34.34292999 -11.74282811 29.89309928 -10.86689758 25.43917847 C-10.23597289 22.24864794 -9.5852219 19.06215593 -8.9375 15.875 C-8.71231689 14.71000977 -8.48713379 13.54501953 -8.25512695 12.34472656 C-8.03300537 11.27319336 -7.81088379 10.20166016 -7.58203125 9.09765625 C-7.39616455 8.16832275 -7.21029785 7.23898926 -7.01879883 6.28149414 C-5.7833927 2.86885766 -3.93436209 -0.3471496 0 0 Z " fill="#5A5A5A" transform="translate(257.125,158.1875)"/>
<path d="M0 0 C3.3 0 6.6 0 10 0 C10 20.46 10 40.92 10 62 C6.7 62 3.4 62 0 62 C0 41.54 0 21.08 0 0 Z " fill="#2EF7B0" transform="translate(171,247)"/>
<path d="M0 0 C2.536875 -0.103125 5.07375 -0.20625 7.6875 -0.3125 C8.47729248 -0.35802002 9.26708496 -0.40354004 10.08081055 -0.45043945 C14.21517496 -0.53146442 15.60379217 -0.32083936 18.95703125 2.39453125 C22.20180352 6.53270162 22.54696166 9.82872614 22 15 C20.20899043 19.24186478 18.10425414 21.01552547 14 23 C10.44921875 23.29296875 10.44921875 23.29296875 6.6875 23.1875 C3.3771875 23.0946875 3.3771875 23.0946875 0 23 C0 15.41 0 7.82 0 0 Z " fill="#FCFEFC" transform="translate(85,256)"/>
<path d="M0 0 C13.36633663 -0.44554455 13.36633663 -0.44554455 18 3 C20.42937292 5.9152475 20.96492911 7.71943286 21.4375 11.5 C20.92017827 15.63857387 20.00806518 17.15453294 17 20 C13.12116243 21.94615288 9.99769274 22.21972951 5.6875 22.125 C3.810625 22.08375 1.93375 22.0425 0 22 C0 14.74 0 7.48 0 0 Z " fill="#F1FEF7" transform="translate(132,255)"/>
<path d="M0 0 C1.32 0 2.64 0 4 0 C4.33 2.31 4.66 4.62 5 7 C3.68 7.33 2.36 7.66 1 8 C1 7.01 1 6.02 1 5 C1.66 5.33 2.32 5.66 3 6 C3 5.34 3 4.68 3 4 C2.01 4 1.02 4 0 4 C0 2.68 0 1.36 0 0 Z " fill="#DD9EDC" transform="translate(268,327)"/>
</svg>
